# xmcd
#
# Track frame offsets:
#	150
#	14054
#	33007
#	48941
#	66912
#	84174
#	104833
#	116822
#	133298
#	151516
#	168224
#	187454
#	202532
#	221521
#	238407
#	254264
#
# Disc length: 3618 seconds
#
# Revision: 2
# Processed by: cddbd v1.4PL0 Copyright (c) Steve Scherf et al.
# Submitted via: EasyCDDAExtractor 6.0.0.1
#
DISCID=e00e2010
DTITLE=Bruno and Marrone - Sonhos, Planos, Fantasias...(Dimas som)
DYEAR=2003
DGENRE=Country
TTITLE0=Credo Em Cruz Ave Maria-Bruno and Marrone
TTITLE1=Agora Vai-Bruno and Marrone
TTITLE2=Anjo De Amor-Bruno and Marrone
TTITLE3=Eu Queria-Bruno and Marrone
TTITLE4=Então Pode Ir-Bruno and Marrone
TTITLE5=Se Tiver Coragem Joga Fora-Bruno and Marrone
TTITLE6=Tá Liberado-Bruno and Marrone
TTITLE7=Menina-Bruno and Marrone
TTITLE8=Raio De Luar-Bruno and Marrone
TTITLE9=Cama Vazia-Bruno and Marrone
TTITLE10=Remar Contra A Maré-Bruno and Marrone
TTITLE11=Telefone Mudo-Bruno and Marrone
TTITLE12=Noite Sem Sono-Bruno and Marrone
TTITLE13=Metade Da Metade-Bruno and Marrone
TTITLE14=Ligação Urbana-Bruno and Marrone
TTITLE15=Como Eu Chorei-Bruno and Marrone
EXTD=
EXTT0=
EXTT1=
EXTT2=
EXTT3=
EXTT4=
EXTT5=
EXTT6=
EXTT7=
EXTT8=
EXTT9=
EXTT10=
EXTT11=
EXTT12=
EXTT13=
EXTT14=
EXTT15=
PLAYORDER=
